<?xml version="1.0" encoding="UTF-8" standalone="no"?>
<!DOCTYPE svg PUBLIC "-//W3C//DTD SVG 1.1//EN" "http://www.w3.org/Graphics/SVG/1.1/DTD/svg11.dtd">
<svg xmlns="http://www.w3.org/2000/svg" version="1.1" viewBox="0.00 0.00 1519.00 1379.00">
<g stroke-width="2.00" fill="none" stroke-linecap="butt">
<path stroke="#026281" vector-effect="non-scaling-stroke" d="
  M 416.81 0.00
  Q 417.33 12.38 416.97 16.75
  C 416.60 21.33 421.72 21.61 421.72 18.18
  Q 421.73 9.10 421.81 0.00"
/>
<path stroke="#026281" vector-effect="non-scaling-stroke" d="
  M 1062.77 1058.47
  Q 1062.78 1058.42 1062.79 1058.36
  Q 1062.81 1058.25 1062.92 1058.25
  Q 1099.38 1058.26 1135.83 1058.24
  C 1137.64 1058.24 1139.11 1057.30 1138.70 1055.33
  A 2.30 2.30 0.0 0 0 1136.45 1053.51
  Q 1100.42 1053.48 1064.22 1053.51
  C 1063.72 1053.51 1062.98 1054.11 1062.71 1053.00"
/>
<path stroke="#026281" vector-effect="non-scaling-stroke" d="
  M 421.74 60.85
  A 2.34 2.34 0.0 0 0 419.40 58.51
  L 419.34 58.51
  A 2.34 2.34 0.0 0 0 417.00 60.85
  L 417.00 135.09
  A 2.34 2.34 0.0 0 0 419.34 137.43
  L 419.40 137.43
  A 2.34 2.34 0.0 0 0 421.74 135.09
  L 421.74 60.85"
/>
<path stroke="#026281" vector-effect="non-scaling-stroke" d="
  M 421.75 177.84
  A 2.35 2.35 0.0 0 0 419.40 175.49
  L 419.36 175.49
  A 2.35 2.35 0.0 0 0 417.01 177.84
  L 417.01 251.90
  A 2.35 2.35 0.0 0 0 419.36 254.25
  L 419.40 254.25
  A 2.35 2.35 0.0 0 0 421.75 251.90
  L 421.75 177.84"
/>
<path stroke="#026281" vector-effect="non-scaling-stroke" d="
  M 428.85 301.24
  C 445.67 338.83 477.77 367.19 517.44 379.60
  A 1.41 1.40 7.8 0 0 519.27 378.22
  L 519.20 375.30
  A 0.72 0.72 0.0 0 0 518.72 374.65
  Q 460.96 355.46 434.39 300.93
  C 433.29 298.68 430.01 297.58 428.84 300.30
  Q 428.64 300.78 428.85 301.24"
/>
<path stroke="#026281" vector-effect="non-scaling-stroke" d="
  M 647.4299 383.3512
  A 2.27 2.27 0.0 0 0 645.1559 381.0852
  L 570.8560 381.2148
  A 2.27 2.27 0.0 0 0 568.5900 383.4888
  L 568.5901 383.5488
  A 2.27 2.27 0.0 0 0 570.8641 385.8148
  L 645.1640 385.6852
  A 2.27 2.27 0.0 0 0 647.4300 383.4112
  L 647.4299 383.3512"
/>
<path stroke="#026281" vector-effect="non-scaling-stroke" d="
  M 764.2097 383.2714
  A 2.19 2.19 0.0 0 0 762.0159 381.0852
  L 687.7360 381.2148
  A 2.19 2.19 0.0 0 0 685.5499 383.4086
  L 685.5503 383.6286
  A 2.19 2.19 0.0 0 0 687.7441 385.8148
  L 762.0240 385.6852
  A 2.19 2.19 0.0 0 0 764.2101 383.4914
  L 764.2097 383.2714"
/>
<path stroke="#026281" vector-effect="non-scaling-stroke" d="
  M 880.6796 383.1914
  A 2.11 2.11 0.0 0 0 878.5659 381.0850
  L 804.1260 381.2150
  A 2.11 2.11 0.0 0 0 802.0197 383.3286
  L 802.0204 383.7086
  A 2.11 2.11 0.0 0 0 804.1341 385.8150
  L 878.5740 385.6850
  A 2.11 2.11 0.0 0 0 880.6803 383.5714
  L 880.6796 383.1914"
/>
<path stroke="#026281" vector-effect="non-scaling-stroke" d="
  M 997.6099 383.3312
  A 2.29 2.29 0.0 0 0 995.3159 381.0452
  L 921.0760 381.1748
  A 2.29 2.29 0.0 0 0 918.7900 383.4688
  L 918.7901 383.5288
  A 2.29 2.29 0.0 0 0 921.0841 385.8148
  L 995.3240 385.6852
  A 2.29 2.29 0.0 0 0 997.6100 383.3912
  L 997.6099 383.3312"
/>
<path stroke="#026281" vector-effect="non-scaling-stroke" d="
  M 1114.4297 383.2414
  A 2.16 2.16 0.0 0 0 1112.2659 381.0851
  L 1037.9260 381.2149
  A 2.16 2.16 0.0 0 0 1035.7698 383.3786
  L 1035.7703 383.6586
  A 2.16 2.16 0.0 0 0 1037.9341 385.8149
  L 1112.2740 385.6851
  A 2.16 2.16 0.0 0 0 1114.4302 383.5214
  L 1114.4297 383.2414"
/>
<path stroke="#026281" vector-effect="non-scaling-stroke" d="
  M 1231.3899 383.3512
  A 2.27 2.27 0.0 0 0 1229.1159 381.0852
  L 1154.8160 381.2148
  A 2.27 2.27 0.0 0 0 1152.5500 383.4888
  L 1152.5501 383.5488
  A 2.27 2.27 0.0 0 0 1154.8241 385.8148
  L 1229.1240 385.6852
  A 2.27 2.27 0.0 0 0 1231.3900 383.4112
  L 1231.3899 383.3512"
/>
<path stroke="#026281" vector-effect="non-scaling-stroke" d="
  M 1281.21 391.49
  Q 1338.41 411.00 1364.71 465.07
  C 1365.70 467.12 1366.95 467.43 1369.01 466.89
  A 1.74 1.74 0.0 0 0 1370.14 464.47
  Q 1343.37 407.23 1283.22 386.75
  C 1278.73 385.22 1278.71 390.64 1281.21 391.49"
/>
<path stroke="#026281" vector-effect="non-scaling-stroke" d="
  M 1373.2348 506.9541
  A 2.20 2.20 0.0 0 0 1371.0387 504.7503
  L 1370.7587 504.7498
  A 2.20 2.20 0.0 0 0 1368.5548 506.9460
  L 1368.4252 581.2259
  A 2.20 2.20 0.0 0 0 1370.6213 583.4297
  L 1370.9013 583.4302
  A 2.20 2.20 0.0 0 0 1373.1052 581.2340
  L 1373.2348 506.9541"
/>
<path stroke="#026281" vector-effect="non-scaling-stroke" d="
  M 1373.2548 623.8742
  A 2.31 2.31 0.0 0 0 1370.9488 621.5601
  L 1370.8688 621.5600
  A 2.31 2.31 0.0 0 0 1368.5548 623.8660
  L 1368.4252 698.0858
  A 2.31 2.31 0.0 0 0 1370.7312 700.3999
  L 1370.8112 700.4000
  A 2.31 2.31 0.0 0 0 1373.1252 698.0940
  L 1373.2548 623.8742"
/>
<path stroke="#026281" vector-effect="non-scaling-stroke" d="
  M 1373.24 740.83
  A 2.34 2.34 0.0 0 0 1370.90 738.49
  L 1370.84 738.49
  A 2.34 2.34 0.0 0 0 1368.50 740.83
  L 1368.50 814.89
  A 2.34 2.34 0.0 0 0 1370.84 817.23
  L 1370.90 817.23
  A 2.34 2.34 0.0 0 0 1373.24 814.89
  L 1373.24 740.83"
/>
<path stroke="#026281" vector-effect="non-scaling-stroke" d="
  M 1373.16 857.62
  A 2.31 2.31 0.0 0 0 1370.85 855.31
  L 1370.81 855.31
  A 2.31 2.31 0.0 0 0 1368.50 857.62
  L 1368.50 931.88
  A 2.31 2.31 0.0 0 0 1370.81 934.19
  L 1370.85 934.19
  A 2.31 2.31 0.0 0 0 1373.16 931.88
  L 1373.16 857.62"
/>
<path stroke="#026281" vector-effect="non-scaling-stroke" d="
  M 1371.58 967.32
  Q 1369.75 966.62 1368.07 967.46
  Q 1367.65 967.67 1367.50 968.12
  Q 1348.05 1026.02 1293.19 1052.46
  Q 1292.69 1052.70 1292.38 1053.16
  Q 1291.42 1054.61 1291.95 1056.29
  A 2.01 2.00 68.5 0 0 1294.72 1057.50
  Q 1352.45 1030.11 1372.55 969.35
  A 1.63 1.62 19.7 0 0 1371.58 967.32"
/>
<path stroke="#026281" vector-effect="non-scaling-stroke" d="
  M 1255.72 1055.84
  A 2.34 2.34 0.0 0 0 1253.38 1053.50
  L 1179.16 1053.50
  A 2.34 2.34 0.0 0 0 1176.82 1055.84
  L 1176.82 1055.90
  A 2.34 2.34 0.0 0 0 1179.16 1058.24
  L 1253.38 1058.24
  A 2.34 2.34 0.0 0 0 1255.72 1055.90
  L 1255.72 1055.84"
/>
<path stroke="#026281" vector-effect="non-scaling-stroke" d="
  M 991.44 1379.00
  L 991.45 1365.52
  A 1.89 1.88 84.4 0 0 989.20 1363.67
  Q 987.13 1364.08 987.11 1366.00
  Q 987.05 1372.50 986.94 1379.00"
/>
<path stroke="#026281" vector-effect="non-scaling-stroke" d="
  M 738.13 807.16
  C 735.31 810.05 738.78 813.39 741.30 810.80
  C 769.88 781.42 809.70 768.40 850.57 774.75
  A 1.48 1.48 0.0 0 0 852.24 773.58
  Q 852.64 771.64 851.47 770.29
  A 1.28 1.28 0.0 0 0 850.69 769.86
  C 808.68 763.40 767.63 776.79 738.13 807.16"
/>
<path stroke="#026281" vector-effect="non-scaling-stroke" d="
  M 898.02 783.36
  C 936.52 794.57 966.76 823.05 980.17 860.31
  Q 980.69 861.75 981.21 862.64
  A 0.78 0.77 -19.7 0 0 982.03 863.02
  Q 984.15 862.63 985.17 860.88
  Q 985.46 860.38 985.26 859.84
  C 970.76 819.61 939.37 789.91 897.98 778.24
  A 1.94 1.93 22.8 0 0 895.79 779.13
  C 894.25 781.79 895.65 782.67 898.02 783.36"
/>
<path stroke="#026281" vector-effect="non-scaling-stroke" d="
  M 709.06 965.66
  Q 710.94 965.50 712.01 963.98
  Q 712.35 963.50 712.11 962.96
  Q 689.01 913.05 708.90 862.35
  C 710.94 857.15 713.89 851.74 716.61 846.57
  Q 716.88 846.05 716.48 845.63
  Q 715.26 844.33 713.45 844.28
  Q 712.90 844.26 712.50 844.63
  Q 711.72 845.34 711.40 845.92
  C 690.93 882.86 689.20 926.64 707.75 964.91
  A 1.33 1.32 74.5 0 0 709.06 965.66"
/>
<path stroke="#026281" vector-effect="non-scaling-stroke" d="
  M 991.24 901.13
  A 2.34 2.34 0.0 0 0 988.90 898.79
  L 988.84 898.79
  A 2.34 2.34 0.0 0 0 986.50 901.13
  L 986.50 975.37
  A 2.34 2.34 0.0 0 0 988.84 977.71
  L 988.90 977.71
  A 2.34 2.34 0.0 0 0 991.24 975.37
  L 991.24 901.13"
/>
<path stroke="#026281" vector-effect="non-scaling-stroke" d="
  M 720.01 994.76
  C 736.85 1022.29 764.30 1042.44 795.23 1050.84
  Q 795.77 1050.98 796.31 1050.80
  Q 797.72 1050.32 798.27 1049.13
  A 2.02 2.02 0.0 0 0 796.98 1046.33
  Q 751.29 1033.60 724.96 993.52
  Q 723.95 991.98 722.16 991.59
  Q 721.52 991.45 721.17 992.01
  L 720.01 993.84
  Q 719.72 994.30 720.01 994.76"
/>
<path stroke="#026281" vector-effect="non-scaling-stroke" d="
  M 991.6649 1015.1841
  A 2.13 2.13 0.0 0 0 989.5386 1013.0504
  L 989.1986 1013.0498
  A 2.13 2.13 0.0 0 0 987.0649 1015.1760
  L 986.9351 1089.5759
  A 2.13 2.13 0.0 0 0 989.0614 1091.7096
  L 989.4014 1091.7102
  A 2.13 2.13 0.0 0 0 991.5351 1089.5840
  L 991.6649 1015.1841"
/>
<path stroke="#026281" vector-effect="non-scaling-stroke" d="
  M 905.46 1054.95
  A 2.23 2.23 0.0 0 0 903.23 1052.72
  L 828.85 1052.72
  A 2.23 2.23 0.0 0 0 826.62 1054.95
  L 826.62 1055.01
  A 2.23 2.23 0.0 0 0 828.85 1057.24
  L 903.23 1057.24
  A 2.23 2.23 0.0 0 0 905.46 1055.01
  L 905.46 1054.95"
/>
<path stroke="#026281" vector-effect="non-scaling-stroke" d="
  M 991.6249 1132.0640
  A 2.25 2.25 0.0 0 0 989.3788 1129.8101
  L 989.3188 1129.8100
  A 2.25 2.25 0.0 0 0 987.0649 1132.0561
  L 986.9351 1206.4160
  A 2.25 2.25 0.0 0 0 989.1812 1208.6699
  L 989.2412 1208.6700
  A 2.25 2.25 0.0 0 0 991.4951 1206.4239
  L 991.6249 1132.0640"
/>
<path stroke="#026281" vector-effect="non-scaling-stroke" d="
  M 991.50 1248.89
  A 2.12 2.12 0.0 0 0 989.38 1246.77
  L 989.12 1246.77
  A 2.12 2.12 0.0 0 0 987.00 1248.89
  L 987.00 1323.41
  A 2.12 2.12 0.0 0 0 989.12 1325.53
  L 989.38 1325.53
  A 2.12 2.12 0.0 0 0 991.50 1323.41
  L 991.50 1248.89"
/>
</g>
<path fill="#00a1b3" d="
  M 352.38 0.00
  L 416.81 0.00
  Q 417.33 12.38 416.97 16.75
  C 416.60 21.33 421.72 21.61 421.72 18.18
  Q 421.73 9.10 421.81 0.00
  L 488.81 0.00
  Q 488.70 118.19 489.05 236.37
  Q 489.09 247.81 490.42 254.52
  C 497.04 287.90 526.25 315.50 561.51 315.50
  Q 893.96 315.50 1226.41 315.50
  C 1228.08 315.50 1230.41 315.81 1232.38 315.87
  C 1340.59 318.91 1428.77 403.10 1437.84 510.58
  Q 1438.47 518.04 1438.48 530.56
  Q 1438.53 721.90 1438.49 913.24
  C 1438.46 1031.07 1343.69 1126.82 1225.43 1126.41
  Q 1144.37 1126.13 1063.29 1126.29
  Q 1062.77 1126.29 1062.77 1125.76
  L 1062.77 1058.47
  Q 1062.78 1058.42 1062.79 1058.36
  Q 1062.81 1058.25 1062.92 1058.25
  Q 1099.38 1058.26 1135.83 1058.24
  C 1137.64 1058.24 1139.11 1057.30 1138.70 1055.33
  A 2.30 2.30 0.0 0 0 1136.45 1053.51
  Q 1100.42 1053.48 1064.22 1053.51
  C 1063.72 1053.51 1062.98 1054.11 1062.71 1053.00
  L 1062.74 990.33
  A 0.58 0.57 -90.0 0 1 1063.31 989.75
  Q 1144.39 989.74 1225.69 989.76
  C 1262.72 989.77 1294.40 964.04 1300.94 927.30
  C 1302.05 921.10 1301.85 914.27 1301.85 907.69
  Q 1302.00 718.94 1302.00 530.19
  Q 1302.00 520.21 1300.74 513.91
  C 1294.77 484.01 1271.88 459.98 1241.63 453.70
  Q 1234.67 452.25 1221.75 452.16
  C 1177.14 451.85 1132.54 452.24 1087.93 452.18
  Q 840.62 451.85 593.32 452.05
  C 580.91 452.06 564.41 452.77 553.25 452.26
  C 446.69 447.39 360.74 360.85 353.03 255.22
  Q 352.53 248.30 352.47 235.24
  Q 351.99 117.62 352.38 0.00
  Z
  M 421.74 60.85
  A 2.34 2.34 0.0 0 0 419.40 58.51
  L 419.34 58.51
  A 2.34 2.34 0.0 0 0 417.00 60.85
  L 417.00 135.09
  A 2.34 2.34 0.0 0 0 419.34 137.43
  L 419.40 137.43
  A 2.34 2.34 0.0 0 0 421.74 135.09
  L 421.74 60.85
  Z
  M 421.75 177.84
  A 2.35 2.35 0.0 0 0 419.40 175.49
  L 419.36 175.49
  A 2.35 2.35 0.0 0 0 417.01 177.84
  L 417.01 251.90
  A 2.35 2.35 0.0 0 0 419.36 254.25
  L 419.40 254.25
  A 2.35 2.35 0.0 0 0 421.75 251.90
  L 421.75 177.84
  Z
  M 428.85 301.24
  C 445.67 338.83 477.77 367.19 517.44 379.60
  A 1.41 1.40 7.8 0 0 519.27 378.22
  L 519.20 375.30
  A 0.72 0.72 0.0 0 0 518.72 374.65
  Q 460.96 355.46 434.39 300.93
  C 433.29 298.68 430.01 297.58 428.84 300.30
  Q 428.64 300.78 428.85 301.24
  Z
  M 647.4299 383.3512
  A 2.27 2.27 0.0 0 0 645.1559 381.0852
  L 570.8560 381.2148
  A 2.27 2.27 0.0 0 0 568.5900 383.4888
  L 568.5901 383.5488
  A 2.27 2.27 0.0 0 0 570.8641 385.8148
  L 645.1640 385.6852
  A 2.27 2.27 0.0 0 0 647.4300 383.4112
  L 647.4299 383.3512
  Z
  M 764.2097 383.2714
  A 2.19 2.19 0.0 0 0 762.0159 381.0852
  L 687.7360 381.2148
  A 2.19 2.19 0.0 0 0 685.5499 383.4086
  L 685.5503 383.6286
  A 2.19 2.19 0.0 0 0 687.7441 385.8148
  L 762.0240 385.6852
  A 2.19 2.19 0.0 0 0 764.2101 383.4914
  L 764.2097 383.2714
  Z
  M 880.6796 383.1914
  A 2.11 2.11 0.0 0 0 878.5659 381.0850
  L 804.1260 381.2150
  A 2.11 2.11 0.0 0 0 802.0197 383.3286
  L 802.0204 383.7086
  A 2.11 2.11 0.0 0 0 804.1341 385.8150
  L 878.5740 385.6850
  A 2.11 2.11 0.0 0 0 880.6803 383.5714
  L 880.6796 383.1914
  Z
  M 997.6099 383.3312
  A 2.29 2.29 0.0 0 0 995.3159 381.0452
  L 921.0760 381.1748
  A 2.29 2.29 0.0 0 0 918.7900 383.4688
  L 918.7901 383.5288
  A 2.29 2.29 0.0 0 0 921.0841 385.8148
  L 995.3240 385.6852
  A 2.29 2.29 0.0 0 0 997.6100 383.3912
  L 997.6099 383.3312
  Z
  M 1114.4297 383.2414
  A 2.16 2.16 0.0 0 0 1112.2659 381.0851
  L 1037.9260 381.2149
  A 2.16 2.16 0.0 0 0 1035.7698 383.3786
  L 1035.7703 383.6586
  A 2.16 2.16 0.0 0 0 1037.9341 385.8149
  L 1112.2740 385.6851
  A 2.16 2.16 0.0 0 0 1114.4302 383.5214
  L 1114.4297 383.2414
  Z
  M 1231.3899 383.3512
  A 2.27 2.27 0.0 0 0 1229.1159 381.0852
  L 1154.8160 381.2148
  A 2.27 2.27 0.0 0 0 1152.5500 383.4888
  L 1152.5501 383.5488
  A 2.27 2.27 0.0 0 0 1154.8241 385.8148
  L 1229.1240 385.6852
  A 2.27 2.27 0.0 0 0 1231.3900 383.4112
  L 1231.3899 383.3512
  Z
  M 1281.21 391.49
  Q 1338.41 411.00 1364.71 465.07
  C 1365.70 467.12 1366.95 467.43 1369.01 466.89
  A 1.74 1.74 0.0 0 0 1370.14 464.47
  Q 1343.37 407.23 1283.22 386.75
  C 1278.73 385.22 1278.71 390.64 1281.21 391.49
  Z
  M 1373.2348 506.9541
  A 2.20 2.20 0.0 0 0 1371.0387 504.7503
  L 1370.7587 504.7498
  A 2.20 2.20 0.0 0 0 1368.5548 506.9460
  L 1368.4252 581.2259
  A 2.20 2.20 0.0 0 0 1370.6213 583.4297
  L 1370.9013 583.4302
  A 2.20 2.20 0.0 0 0 1373.1052 581.2340
  L 1373.2348 506.9541
  Z
  M 1373.2548 623.8742
  A 2.31 2.31 0.0 0 0 1370.9488 621.5601
  L 1370.8688 621.5600
  A 2.31 2.31 0.0 0 0 1368.5548 623.8660
  L 1368.4252 698.0858
  A 2.31 2.31 0.0 0 0 1370.7312 700.3999
  L 1370.8112 700.4000
  A 2.31 2.31 0.0 0 0 1373.1252 698.0940
  L 1373.2548 623.8742
  Z
  M 1373.24 740.83
  A 2.34 2.34 0.0 0 0 1370.90 738.49
  L 1370.84 738.49
  A 2.34 2.34 0.0 0 0 1368.50 740.83
  L 1368.50 814.89
  A 2.34 2.34 0.0 0 0 1370.84 817.23
  L 1370.90 817.23
  A 2.34 2.34 0.0 0 0 1373.24 814.89
  L 1373.24 740.83
  Z
  M 1373.16 857.62
  A 2.31 2.31 0.0 0 0 1370.85 855.31
  L 1370.81 855.31
  A 2.31 2.31 0.0 0 0 1368.50 857.62
  L 1368.50 931.88
  A 2.31 2.31 0.0 0 0 1370.81 934.19
  L 1370.85 934.19
  A 2.31 2.31 0.0 0 0 1373.16 931.88
  L 1373.16 857.62
  Z
  M 1371.58 967.32
  Q 1369.75 966.62 1368.07 967.46
  Q 1367.65 967.67 1367.50 968.12
  Q 1348.05 1026.02 1293.19 1052.46
  Q 1292.69 1052.70 1292.38 1053.16
  Q 1291.42 1054.61 1291.95 1056.29
  A 2.01 2.00 68.5 0 0 1294.72 1057.50
  Q 1352.45 1030.11 1372.55 969.35
  A 1.63 1.62 19.7 0 0 1371.58 967.32
  Z
  M 1255.72 1055.84
  A 2.34 2.34 0.0 0 0 1253.38 1053.50
  L 1179.16 1053.50
  A 2.34 2.34 0.0 0 0 1176.82 1055.84
  L 1176.82 1055.90
  A 2.34 2.34 0.0 0 0 1179.16 1058.24
  L 1253.38 1058.24
  A 2.34 2.34 0.0 0 0 1255.72 1055.90
  L 1255.72 1055.84
  Z"
/>
<path fill="#04224e" d="
  M 416.81 0.00
  L 421.81 0.00
  Q 421.73 9.10 421.72 18.18
  C 421.72 21.61 416.60 21.33 416.97 16.75
  Q 417.33 12.38 416.81 0.00
  Z"
/>
<rect fill="#04224e" x="417.00" y="58.51" width="4.74" height="78.92" rx="2.34"/>
<rect fill="#04224e" x="417.01" y="175.49" width="4.74" height="78.76" rx="2.35"/>
<path fill="#04224e" d="
  M 517.44 379.60
  C 477.77 367.19 445.67 338.83 428.85 301.24
  Q 428.64 300.78 428.84 300.30
  C 430.01 297.58 433.29 298.68 434.39 300.93
  Q 460.96 355.46 518.72 374.65
  A 0.72 0.72 0.0 0 1 519.20 375.30
  L 519.27 378.22
  A 1.41 1.40 7.8 0 1 517.44 379.60
  Z"
/>
<rect fill="#04224e" x="-39.42" y="-2.30" transform="translate(608.01,383.45) rotate(-0.1)" width="78.84" height="4.60" rx="2.27"/>
<rect fill="#04224e" x="-39.33" y="-2.30" transform="translate(724.88,383.45) rotate(-0.1)" width="78.66" height="4.60" rx="2.19"/>
<rect fill="#04224e" x="-39.33" y="-2.30" transform="translate(841.35,383.45) rotate(-0.1)" width="78.66" height="4.60" rx="2.11"/>
<rect fill="#04224e" x="-39.41" y="-2.32" transform="translate(958.20,383.43) rotate(-0.1)" width="78.82" height="4.64" rx="2.29"/>
<rect fill="#04224e" x="-39.33" y="-2.30" transform="translate(1075.10,383.45) rotate(-0.1)" width="78.66" height="4.60" rx="2.16"/>
<rect fill="#04224e" x="-39.42" y="-2.30" transform="translate(1191.97,383.45) rotate(-0.1)" width="78.84" height="4.60" rx="2.27"/>
<path fill="#04224e" d="
  M 1281.21 391.49
  C 1278.71 390.64 1278.73 385.22 1283.22 386.75
  Q 1343.37 407.23 1370.14 464.47
  A 1.74 1.74 0.0 0 1 1369.01 466.89
  C 1366.95 467.43 1365.70 467.12 1364.71 465.07
  Q 1338.41 411.00 1281.21 391.49
  Z"
/>
<rect fill="#04224e" x="-2.34" y="-39.34" transform="translate(1370.83,544.09) rotate(0.1)" width="4.68" height="78.68" rx="2.20"/>
<rect fill="#04224e" x="-2.35" y="-39.42" transform="translate(1370.84,660.98) rotate(0.1)" width="4.70" height="78.84" rx="2.31"/>
<path fill="#00a1b3" d="
  M 1058.20 1379.00
  L 991.44 1379.00
  L 991.45 1365.52
  A 1.89 1.88 84.4 0 0 989.20 1363.67
  Q 987.13 1364.08 987.11 1366.00
  Q 987.05 1372.50 986.94 1379.00
  L 921.94 1379.00
  Q 921.57 1147.30 921.80 915.60
  Q 921.81 905.28 920.54 899.01
  C 911.65 855.12 866.56 827.88 823.30 841.42
  C 796.93 849.67 776.66 872.14 771.36 899.41
  C 763.39 940.49 790.17 980.00 830.73 988.45
  Q 836.80 989.72 846.51 989.72
  Q 881.13 989.75 915.75 989.75
  Q 916.25 989.75 916.25 990.26
  L 916.25 1125.74
  Q 916.25 1126.23 915.75 1126.24
  Q 881.35 1126.28 847.01 1126.25
  C 719.85 1126.16 621.36 1017.80 634.72 891.16
  C 648.24 763.02 772.10 677.59 896.76 707.54
  C 984.75 728.68 1050.76 806.31 1057.71 896.84
  Q 1058.24 903.82 1058.24 916.81
  Q 1058.29 1147.91 1058.20 1379.00
  Z
  M 738.13 807.16
  C 735.31 810.05 738.78 813.39 741.30 810.80
  C 769.88 781.42 809.70 768.40 850.57 774.75
  A 1.48 1.48 0.0 0 0 852.24 773.58
  Q 852.64 771.64 851.47 770.29
  A 1.28 1.28 0.0 0 0 850.69 769.86
  C 808.68 763.40 767.63 776.79 738.13 807.16
  Z
  M 898.02 783.36
  C 936.52 794.57 966.76 823.05 980.17 860.31
  Q 980.69 861.75 981.21 862.64
  A 0.78 0.77 -19.7 0 0 982.03 863.02
  Q 984.15 862.63 985.17 860.88
  Q 985.46 860.38 985.26 859.84
  C 970.76 819.61 939.37 789.91 897.98 778.24
  A 1.94 1.93 22.8 0 0 895.79 779.13
  C 894.25 781.79 895.65 782.67 898.02 783.36
  Z
  M 709.06 965.66
  Q 710.94 965.50 712.01 963.98
  Q 712.35 963.50 712.11 962.96
  Q 689.01 913.05 708.90 862.35
  C 710.94 857.15 713.89 851.74 716.61 846.57
  Q 716.88 846.05 716.48 845.63
  Q 715.26 844.33 713.45 844.28
  Q 712.90 844.26 712.50 844.63
  Q 711.72 845.34 711.40 845.92
  C 690.93 882.86 689.20 926.64 707.75 964.91
  A 1.33 1.32 74.5 0 0 709.06 965.66
  Z
  M 991.24 901.13
  A 2.34 2.34 0.0 0 0 988.90 898.79
  L 988.84 898.79
  A 2.34 2.34 0.0 0 0 986.50 901.13
  L 986.50 975.37
  A 2.34 2.34 0.0 0 0 988.84 977.71
  L 988.90 977.71
  A 2.34 2.34 0.0 0 0 991.24 975.37
  L 991.24 901.13
  Z
  M 720.01 994.76
  C 736.85 1022.29 764.30 1042.44 795.23 1050.84
  Q 795.77 1050.98 796.31 1050.80
  Q 797.72 1050.32 798.27 1049.13
  A 2.02 2.02 0.0 0 0 796.98 1046.33
  Q 751.29 1033.60 724.96 993.52
  Q 723.95 991.98 722.16 991.59
  Q 721.52 991.45 721.17 992.01
  L 720.01 993.84
  Q 719.72 994.30 720.01 994.76
  Z
  M 991.6649 1015.1841
  A 2.13 2.13 0.0 0 0 989.5386 1013.0504
  L 989.1986 1013.0498
  A 2.13 2.13 0.0 0 0 987.0649 1015.1760
  L 986.9351 1089.5759
  A 2.13 2.13 0.0 0 0 989.0614 1091.7096
  L 989.4014 1091.7102
  A 2.13 2.13 0.0 0 0 991.5351 1089.5840
  L 991.6649 1015.1841
  Z
  M 905.46 1054.95
  A 2.23 2.23 0.0 0 0 903.23 1052.72
  L 828.85 1052.72
  A 2.23 2.23 0.0 0 0 826.62 1054.95
  L 826.62 1055.01
  A 2.23 2.23 0.0 0 0 828.85 1057.24
  L 903.23 1057.24
  A 2.23 2.23 0.0 0 0 905.46 1055.01
  L 905.46 1054.95
  Z
  M 991.6249 1132.0640
  A 2.25 2.25 0.0 0 0 989.3788 1129.8101
  L 989.3188 1129.8100
  A 2.25 2.25 0.0 0 0 987.0649 1132.0561
  L 986.9351 1206.4160
  A 2.25 2.25 0.0 0 0 989.1812 1208.6699
  L 989.2412 1208.6700
  A 2.25 2.25 0.0 0 0 991.4951 1206.4239
  L 991.6249 1132.0640
  Z
  M 991.50 1248.89
  A 2.12 2.12 0.0 0 0 989.38 1246.77
  L 989.12 1246.77
  A 2.12 2.12 0.0 0 0 987.00 1248.89
  L 987.00 1323.41
  A 2.12 2.12 0.0 0 0 989.12 1325.53
  L 989.38 1325.53
  A 2.12 2.12 0.0 0 0 991.50 1323.41
  L 991.50 1248.89
  Z"
/>
<rect fill="#04224e" x="1368.50" y="738.49" width="4.74" height="78.74" rx="2.34"/>
<path fill="#04224e" d="
  M 741.30 810.80
  C 738.78 813.39 735.31 810.05 738.13 807.16
  C 767.63 776.79 808.68 763.40 850.69 769.86
  A 1.28 1.28 0.0 0 1 851.47 770.29
  Q 852.64 771.64 852.24 773.58
  A 1.48 1.48 0.0 0 1 850.57 774.75
  C 809.70 768.40 769.88 781.42 741.30 810.80
  Z"
/>
<path fill="#04224e" d="
  M 980.17 860.31
  C 966.76 823.05 936.52 794.57 898.02 783.36
  C 895.65 782.67 894.25 781.79 895.79 779.13
  A 1.94 1.93 22.8 0 1 897.98 778.24
  C 939.37 789.91 970.76 819.61 985.26 859.84
  Q 985.46 860.38 985.17 860.88
  Q 984.15 862.63 982.03 863.02
  A 0.78 0.77 -19.7 0 1 981.21 862.64
  Q 980.69 861.75 980.17 860.31
  Z"
/>
<path fill="#04224e" d="
  M 709.06 965.66
  A 1.33 1.32 74.5 0 1 707.75 964.91
  C 689.20 926.64 690.93 882.86 711.40 845.92
  Q 711.72 845.34 712.50 844.63
  Q 712.90 844.26 713.45 844.28
  Q 715.26 844.33 716.48 845.63
  Q 716.88 846.05 716.61 846.57
  C 713.89 851.74 710.94 857.15 708.90 862.35
  Q 689.01 913.05 712.11 962.96
  Q 712.35 963.50 712.01 963.98
  Q 710.94 965.50 709.06 965.66
  Z"
/>
<rect fill="#04224e" x="1368.50" y="855.31" width="4.66" height="78.88" rx="2.31"/>
<rect fill="#04224e" x="986.50" y="898.79" width="4.74" height="78.92" rx="2.34"/>
<path fill="#04224e" d="
  M 1371.58 967.32
  A 1.63 1.62 19.7 0 1 1372.55 969.35
  Q 1352.45 1030.11 1294.72 1057.50
  A 2.01 2.00 68.5 0 1 1291.95 1056.29
  Q 1291.42 1054.61 1292.38 1053.16
  Q 1292.69 1052.70 1293.19 1052.46
  Q 1348.05 1026.02 1367.50 968.12
  Q 1367.65 967.67 1368.07 967.46
  Q 1369.75 966.62 1371.58 967.32
  Z"
/>
<path fill="#04224e" d="
  M 795.23 1050.84
  C 764.30 1042.44 736.85 1022.29 720.01 994.76
  Q 719.72 994.30 720.01 993.84
  L 721.17 992.01
  Q 721.52 991.45 722.16 991.59
  Q 723.95 991.98 724.96 993.52
  Q 751.29 1033.60 796.98 1046.33
  A 2.02 2.02 0.0 0 1 798.27 1049.13
  Q 797.72 1050.32 796.31 1050.80
  Q 795.77 1050.98 795.23 1050.84
  Z"
/>
<rect fill="#04224e" x="-2.30" y="-39.33" transform="translate(989.30,1052.38) rotate(0.1)" width="4.60" height="78.66" rx="2.13"/>
<rect fill="#04224e" x="826.62" y="1052.72" width="78.84" height="4.52" rx="2.23"/>
<path fill="#04224e" d="
  M 1062.71 1053.00
  C 1062.98 1054.11 1063.72 1053.51 1064.22 1053.51
  Q 1100.42 1053.48 1136.45 1053.51
  A 2.30 2.30 0.0 0 1 1138.70 1055.33
  C 1139.11 1057.30 1137.64 1058.24 1135.83 1058.24
  Q 1099.38 1058.26 1062.92 1058.25
  Q 1062.81 1058.25 1062.79 1058.36
  Q 1062.78 1058.42 1062.77 1058.47
  Q 1058.79 1057.53 1060.35 1054.47
  A 1.03 1.02 8.1 0 1 1061.09 1053.92
  Q 1062.10 1053.73 1062.71 1053.00
  Z"
/>
<rect fill="#04224e" x="1176.82" y="1053.50" width="78.90" height="4.74" rx="2.34"/>
<rect fill="#04224e" x="-2.28" y="-39.43" transform="translate(989.28,1169.24) rotate(0.1)" width="4.56" height="78.86" rx="2.25"/>
<rect fill="#04224e" x="987.00" y="1246.77" width="4.50" height="78.76" rx="2.12"/>
<path fill="#04224e" d="
  M 991.44 1379.00
  L 986.94 1379.00
  Q 987.05 1372.50 987.11 1366.00
  Q 987.13 1364.08 989.20 1363.67
  A 1.89 1.88 84.4 0 1 991.45 1365.52
  L 991.44 1379.00
  Z"
/>
</svg>
