<?xml version="1.0" encoding="UTF-8" standalone="no"?>
<!DOCTYPE svg PUBLIC "-//W3C//DTD SVG 1.1//EN" "http://www.w3.org/Graphics/SVG/1.1/DTD/svg11.dtd">
<svg xmlns="http://www.w3.org/2000/svg" version="1.1" viewBox="0.00 0.00 1167.00 1795.00">
<g stroke-width="2.00" fill="none" stroke-linecap="butt">
<path stroke="#026281" vector-effect="non-scaling-stroke" d="
  M 186.18 0.00
  Q 186.33 11.37 186.09 22.75
  C 185.99 27.57 192.26 28.31 192.26 23.18
  Q 192.25 11.59 192.25 0.00"
/>
<path stroke="#026281" vector-effect="non-scaling-stroke" d="
  M 731.11 1379.96
  L 810.05 1379.62
  A 2.48 2.48 0.0 0 0 812.51 1377.35
  C 812.74 1374.52 810.75 1373.75 808.24 1373.75
  Q 769.92 1373.75 731.07 1373.75"
/>
<path stroke="#026281" vector-effect="non-scaling-stroke" d="
  M 192.25 79.10
  A 2.85 2.85 0.0 0 0 189.40 76.25
  L 189.10 76.25
  A 2.85 2.85 0.0 0 0 186.25 79.10
  L 186.25 175.92
  A 2.85 2.85 0.0 0 0 189.10 178.77
  L 189.40 178.77
  A 2.85 2.85 0.0 0 0 192.25 175.92
  L 192.25 79.10"
/>
<path stroke="#026281" vector-effect="non-scaling-stroke" d="
  M 192.25 231.26
  A 2.96 2.96 0.0 0 0 189.29 228.30
  L 189.21 228.30
  A 2.96 2.96 0.0 0 0 186.25 231.26
  L 186.25 328.04
  A 2.96 2.96 0.0 0 0 189.21 331.00
  L 189.29 331.00
  A 2.96 2.96 0.0 0 0 192.25 328.04
  L 192.25 231.26"
/>
<path stroke="#026281" vector-effect="non-scaling-stroke" d="
  M 201.99 392.73
  C 223.70 441.02 265.26 477.87 315.86 493.68
  C 320.58 495.16 321.03 488.44 316.93 487.05
  Q 243.08 461.95 208.74 391.46
  C 206.80 387.48 200.09 388.51 201.99 392.73"
/>
<path stroke="#026281" vector-effect="non-scaling-stroke" d="
  M 232.92 497.01
  L 236.46 496.68
  Q 237.31 496.60 236.49 496.38
  Q 234.31 495.79 232.80 496.64
  Q 231.98 497.10 232.92 497.01"
/>
<path stroke="#026281" vector-effect="non-scaling-stroke" d="
  M 633.65 500.95
  A 2.96 2.96 0.0 0 0 630.69 497.99
  L 533.97 497.99
  A 2.96 2.96 0.0 0 0 531.01 500.95
  L 531.01 501.03
  A 2.96 2.96 0.0 0 0 533.97 503.99
  L 630.69 503.99
  A 2.96 2.96 0.0 0 0 633.65 501.03
  L 633.65 500.95"
/>
<path stroke="#026281" vector-effect="non-scaling-stroke" d="
  M 481.47 500.96
  A 2.96 2.96 0.0 0 0 478.51 498.00
  L 381.73 498.00
  A 2.96 2.96 0.0 0 0 378.77 500.96
  L 378.77 501.04
  A 2.96 2.96 0.0 0 0 381.73 504.00
  L 478.51 504.00
  A 2.96 2.96 0.0 0 0 481.47 501.04
  L 481.47 500.96"
/>
<path stroke="#026281" vector-effect="non-scaling-stroke" d="
  M 785.78 500.96
  A 2.96 2.96 0.0 0 0 782.82 498.00
  L 686.02 498.00
  A 2.96 2.96 0.0 0 0 683.06 500.96
  L 683.06 501.04
  A 2.96 2.96 0.0 0 0 686.02 504.00
  L 782.82 504.00
  A 2.96 2.96 0.0 0 0 785.78 501.04
  L 785.78 500.96"
/>
<path stroke="#026281" vector-effect="non-scaling-stroke" d="
  M 841.94 511.56
  Q 916.50 536.92 950.56 606.58
  C 951.85 609.22 953.72 610.86 956.62 609.47
  A 2.47 2.47 0.0 0 0 957.80 606.22
  C 935.91 557.91 894.81 521.21 844.02 505.15
  C 838.46 503.39 839.45 510.72 841.94 511.56"
/>
<path stroke="#026281" vector-effect="non-scaling-stroke" d="
  M 961.75 661.69
  A 2.96 2.96 0.0 0 0 958.79 658.73
  L 958.71 658.73
  A 2.96 2.96 0.0 0 0 955.75 661.69
  L 955.75 758.47
  A 2.96 2.96 0.0 0 0 958.71 761.43
  L 958.79 761.43
  A 2.96 2.96 0.0 0 0 961.75 758.47
  L 961.75 661.69"
/>
<path stroke="#026281" vector-effect="non-scaling-stroke" d="
  M 961.75 813.77
  A 2.96 2.96 0.0 0 0 958.79 810.81
  L 958.71 810.81
  A 2.96 2.96 0.0 0 0 955.75 813.77
  L 955.75 910.55
  A 2.96 2.96 0.0 0 0 958.71 913.51
  L 958.79 913.51
  A 2.96 2.96 0.0 0 0 961.75 910.55
  L 961.75 813.77"
/>
<path stroke="#026281" vector-effect="non-scaling-stroke" d="
  M 961.75 965.98
  A 2.96 2.96 0.0 0 0 958.79 963.02
  L 958.71 963.02
  A 2.96 2.96 0.0 0 0 955.75 965.98
  L 955.75 1062.76
  A 2.96 2.96 0.0 0 0 958.71 1065.72
  L 958.79 1065.72
  A 2.96 2.96 0.0 0 0 961.75 1062.76
  L 961.75 965.98"
/>
<path stroke="#026281" vector-effect="non-scaling-stroke" d="
  M 961.75 1118.20
  A 2.96 2.96 0.0 0 0 958.79 1115.24
  L 958.71 1115.24
  A 2.96 2.96 0.0 0 0 955.75 1118.20
  L 955.75 1214.82
  A 2.96 2.96 0.0 0 0 958.71 1217.78
  L 958.79 1217.78
  A 2.96 2.96 0.0 0 0 961.75 1214.82
  L 961.75 1118.20"
/>
<path stroke="#026281" vector-effect="non-scaling-stroke" d="
  M 856.66 1377.76
  A 2.14 2.13 -29.6 0 0 859.32 1378.49
  C 907.36 1356.09 946.33 1314.81 961.10 1262.87
  A 1.07 1.06 30.1 0 0 960.81 1261.80
  Q 958.46 1259.59 955.24 1261.07
  Q 954.76 1261.29 954.60 1261.79
  Q 929.64 1336.52 859.21 1371.06
  C 856.35 1372.46 854.68 1374.86 856.66 1377.76"
/>
<path stroke="#026281" vector-effect="non-scaling-stroke" d="
  M 638.47 1795.00
  L 638.48 1777.58
  A 2.57 2.56 0.3 0 0 635.94 1775.02
  Q 632.37 1774.99 632.49 1778.55
  C 632.66 1784.03 632.45 1789.50 632.64 1795.00"
/>
<path stroke="#026281" vector-effect="non-scaling-stroke" d="
  M 540.49 1371.52
  Q 538.34 1371.20 536.25 1371.20
  Q 491.10 1371.26 445.96 1371.52
  C 440.89 1371.55 441.65 1377.49 447.52 1377.50
  Q 493.97 1377.52 540.49 1377.47"
/>
<path stroke="#026281" vector-effect="non-scaling-stroke" d="
  M 308.35 1050.78
  C 304.48 1054.69 310.19 1057.99 311.93 1056.20
  C 349.39 1017.58 401.58 999.78 454.83 1008.31
  C 458.34 1008.87 458.00 1002.34 453.70 1001.76
  C 398.43 994.34 347.44 1011.25 308.35 1050.78"
/>
<path stroke="#026281" vector-effect="non-scaling-stroke" d="
  M 514.22 1018.96
  C 567.23 1034.35 605.75 1070.19 624.57 1121.96
  A 1.85 1.84 -13.9 0 0 626.55 1123.15
  C 629.61 1122.71 630.73 1120.55 629.66 1117.60
  C 611.03 1066.35 570.86 1029.27 518.81 1013.68
  Q 516.25 1012.91 514.51 1013.11
  A 0.94 0.94 0.0 0 0 513.75 1013.71
  Q 512.92 1015.98 513.48 1018.19
  Q 513.63 1018.78 514.22 1018.96"
/>
<path stroke="#026281" vector-effect="non-scaling-stroke" d="
  M 279.96 1100.33
  Q 277.88 1098.67 275.41 1099.19
  Q 274.88 1099.31 274.61 1099.77
  C 246.74 1147.94 244.85 1206.01 268.88 1255.79
  A 2.12 2.11 -17.7 0 0 271.13 1256.95
  Q 273.77 1256.49 274.75 1254.08
  A 1.19 1.16 44.1 0 0 274.72 1253.12
  C 251.24 1204.52 253.50 1148.59 280.36 1102.44
  A 1.65 1.64 34.5 0 0 279.96 1100.33"
/>
<path stroke="#026281" vector-effect="non-scaling-stroke" d="
  M 638.00 1172.96
  A 2.96 2.96 0.0 0 0 635.04 1170.00
  L 634.96 1170.00
  A 2.96 2.96 0.0 0 0 632.00 1172.96
  L 632.00 1269.74
  A 2.96 2.96 0.0 0 0 634.96 1272.70
  L 635.04 1272.70
  A 2.96 2.96 0.0 0 0 638.00 1269.74
  L 638.00 1172.96"
/>
<path stroke="#026281" vector-effect="non-scaling-stroke" d="
  M 286.10 1296.63
  C 307.88 1331.23 342.39 1356.54 381.62 1367.49
  C 384.99 1368.43 387.60 1366.98 386.92 1363.20
  A 1.15 1.14 -86.7 0 0 386.11 1362.29
  C 345.86 1350.42 314.13 1328.39 291.21 1292.91
  C 290.35 1291.58 289.35 1291.32 287.99 1290.74
  Q 287.54 1290.56 287.09 1290.74
  C 284.30 1291.90 284.72 1294.43 286.10 1296.63"
/>
<path stroke="#026281" vector-effect="non-scaling-stroke" d="
  M 638.50 1321.46
  A 2.96 2.96 0.0 0 0 635.54 1318.50
  L 635.46 1318.50
  A 2.96 2.96 0.0 0 0 632.50 1321.46
  L 632.50 1418.24
  A 2.96 2.96 0.0 0 0 635.46 1421.20
  L 635.54 1421.20
  A 2.96 2.96 0.0 0 0 638.50 1418.24
  L 638.50 1321.46"
/>
<path stroke="#026281" vector-effect="non-scaling-stroke" d="
  M 638.50 1473.67
  A 2.96 2.96 0.0 0 0 635.54 1470.71
  L 635.46 1470.71
  A 2.96 2.96 0.0 0 0 632.50 1473.67
  L 632.50 1570.47
  A 2.96 2.96 0.0 0 0 635.46 1573.43
  L 635.54 1573.43
  A 2.96 2.96 0.0 0 0 638.50 1570.47
  L 638.50 1473.67"
/>
<path stroke="#026281" vector-effect="non-scaling-stroke" d="
  M 638.50 1625.75
  A 2.96 2.96 0.0 0 0 635.54 1622.79
  L 635.46 1622.79
  A 2.96 2.96 0.0 0 0 632.50 1625.75
  L 632.50 1722.55
  A 2.96 2.96 0.0 0 0 635.46 1725.51
  L 635.54 1725.51
  A 2.96 2.96 0.0 0 0 638.50 1722.55
  L 638.50 1625.75"
/>
</g>
<path fill="#00a1b3" d="
  M 101.46 0.00
  L 186.18 0.00
  Q 186.33 11.37 186.09 22.75
  C 185.99 27.57 192.26 28.31 192.26 23.18
  Q 192.25 11.59 192.25 0.00
  L 279.23 0.00
  Q 279.26 155.38 279.56 310.76
  Q 279.58 322.94 280.90 330.15
  C 288.39 371.20 321.67 404.33 363.53 410.37
  Q 366.72 410.83 370.13 410.82
  Q 640.67 410.42 756.00 410.48
  C 775.61 410.48 796.94 411.39 816.92 414.27
  C 946.60 432.98 1045.51 539.98 1053.79 670.76
  Q 1054.26 678.14 1054.25 690.75
  Q 1054.23 941.25 1054.27 1191.75
  C 1054.27 1264.87 1023.95 1336.56 971.75 1387.39
  Q 903.23 1454.10 806.94 1465.45
  Q 806.11 1465.55 800.58 1465.91
  C 797.76 1466.09 794.80 1466.75 792.13 1466.78
  Q 764.98 1467.11 737.85 1465.99
  C 736.05 1465.92 734.19 1466.21 732.49 1466.27
  Q 730.95 1466.32 730.96 1464.78
  L 731.11 1379.96
  L 810.05 1379.62
  A 2.48 2.48 0.0 0 0 812.51 1377.35
  C 812.74 1374.52 810.75 1373.75 808.24 1373.75
  Q 769.92 1373.75 731.07 1373.75
  L 731.03 1289.26
  A 0.77 0.77 0.0 0 1 731.80 1288.49
  Q 757.05 1288.51 782.56 1288.51
  C 832.74 1288.50 876.49 1242.87 876.49 1192.81
  Q 876.51 946.57 876.50 700.33
  C 876.50 694.22 877.25 685.77 876.71 680.00
  C 872.50 634.98 838.58 598.28 794.40 590.51
  Q 787.15 589.24 774.50 589.17
  C 722.48 588.90 670.46 588.89 618.44 588.63
  Q 493.47 587.99 368.50 588.49
  Q 356.97 588.53 348.55 587.61
  C 207.96 572.23 103.30 454.61 101.63 314.19
  C 100.45 214.54 101.62 104.79 101.46 0.00
  Z
  M 192.25 79.10
  A 2.85 2.85 0.0 0 0 189.40 76.25
  L 189.10 76.25
  A 2.85 2.85 0.0 0 0 186.25 79.10
  L 186.25 175.92
  A 2.85 2.85 0.0 0 0 189.10 178.77
  L 189.40 178.77
  A 2.85 2.85 0.0 0 0 192.25 175.92
  L 192.25 79.10
  Z
  M 192.25 231.26
  A 2.96 2.96 0.0 0 0 189.29 228.30
  L 189.21 228.30
  A 2.96 2.96 0.0 0 0 186.25 231.26
  L 186.25 328.04
  A 2.96 2.96 0.0 0 0 189.21 331.00
  L 189.29 331.00
  A 2.96 2.96 0.0 0 0 192.25 328.04
  L 192.25 231.26
  Z
  M 201.99 392.73
  C 223.70 441.02 265.26 477.87 315.86 493.68
  C 320.58 495.16 321.03 488.44 316.93 487.05
  Q 243.08 461.95 208.74 391.46
  C 206.80 387.48 200.09 388.51 201.99 392.73
  Z
  M 232.92 497.01
  L 236.46 496.68
  Q 237.31 496.60 236.49 496.38
  Q 234.31 495.79 232.80 496.64
  Q 231.98 497.10 232.92 497.01
  Z
  M 633.65 500.95
  A 2.96 2.96 0.0 0 0 630.69 497.99
  L 533.97 497.99
  A 2.96 2.96 0.0 0 0 531.01 500.95
  L 531.01 501.03
  A 2.96 2.96 0.0 0 0 533.97 503.99
  L 630.69 503.99
  A 2.96 2.96 0.0 0 0 633.65 501.03
  L 633.65 500.95
  Z
  M 481.47 500.96
  A 2.96 2.96 0.0 0 0 478.51 498.00
  L 381.73 498.00
  A 2.96 2.96 0.0 0 0 378.77 500.96
  L 378.77 501.04
  A 2.96 2.96 0.0 0 0 381.73 504.00
  L 478.51 504.00
  A 2.96 2.96 0.0 0 0 481.47 501.04
  L 481.47 500.96
  Z
  M 785.78 500.96
  A 2.96 2.96 0.0 0 0 782.82 498.00
  L 686.02 498.00
  A 2.96 2.96 0.0 0 0 683.06 500.96
  L 683.06 501.04
  A 2.96 2.96 0.0 0 0 686.02 504.00
  L 782.82 504.00
  A 2.96 2.96 0.0 0 0 785.78 501.04
  L 785.78 500.96
  Z
  M 841.94 511.56
  Q 916.50 536.92 950.56 606.58
  C 951.85 609.22 953.72 610.86 956.62 609.47
  A 2.47 2.47 0.0 0 0 957.80 606.22
  C 935.91 557.91 894.81 521.21 844.02 505.15
  C 838.46 503.39 839.45 510.72 841.94 511.56
  Z
  M 961.75 661.69
  A 2.96 2.96 0.0 0 0 958.79 658.73
  L 958.71 658.73
  A 2.96 2.96 0.0 0 0 955.75 661.69
  L 955.75 758.47
  A 2.96 2.96 0.0 0 0 958.71 761.43
  L 958.79 761.43
  A 2.96 2.96 0.0 0 0 961.75 758.47
  L 961.75 661.69
  Z
  M 961.75 813.77
  A 2.96 2.96 0.0 0 0 958.79 810.81
  L 958.71 810.81
  A 2.96 2.96 0.0 0 0 955.75 813.77
  L 955.75 910.55
  A 2.96 2.96 0.0 0 0 958.71 913.51
  L 958.79 913.51
  A 2.96 2.96 0.0 0 0 961.75 910.55
  L 961.75 813.77
  Z
  M 961.75 965.98
  A 2.96 2.96 0.0 0 0 958.79 963.02
  L 958.71 963.02
  A 2.96 2.96 0.0 0 0 955.75 965.98
  L 955.75 1062.76
  A 2.96 2.96 0.0 0 0 958.71 1065.72
  L 958.79 1065.72
  A 2.96 2.96 0.0 0 0 961.75 1062.76
  L 961.75 965.98
  Z
  M 961.75 1118.20
  A 2.96 2.96 0.0 0 0 958.79 1115.24
  L 958.71 1115.24
  A 2.96 2.96 0.0 0 0 955.75 1118.20
  L 955.75 1214.82
  A 2.96 2.96 0.0 0 0 958.71 1217.78
  L 958.79 1217.78
  A 2.96 2.96 0.0 0 0 961.75 1214.82
  L 961.75 1118.20
  Z
  M 856.66 1377.76
  A 2.14 2.13 -29.6 0 0 859.32 1378.49
  C 907.36 1356.09 946.33 1314.81 961.10 1262.87
  A 1.07 1.06 30.1 0 0 960.81 1261.80
  Q 958.46 1259.59 955.24 1261.07
  Q 954.76 1261.29 954.60 1261.79
  Q 929.64 1336.52 859.21 1371.06
  C 856.35 1372.46 854.68 1374.86 856.66 1377.76
  Z"
/>
<path fill="#04224e" d="
  M 186.18 0.00
  L 192.25 0.00
  Q 192.25 11.59 192.26 23.18
  C 192.26 28.31 185.99 27.57 186.09 22.75
  Q 186.33 11.37 186.18 0.00
  Z"
/>
<rect fill="#04224e" x="186.25" y="76.25" width="6.00" height="102.52" rx="2.85"/>
<rect fill="#04224e" x="186.25" y="228.30" width="6.00" height="102.70" rx="2.96"/>
<path fill="#04224e" d="
  M 315.86 493.68
  C 265.26 477.87 223.70 441.02 201.99 392.73
  C 200.09 388.51 206.80 387.48 208.74 391.46
  Q 243.08 461.95 316.93 487.05
  C 321.03 488.44 320.58 495.16 315.86 493.68
  Z"
/>
<path fill="#04224e" d="
  M 232.92 497.01
  Q 231.98 497.10 232.80 496.64
  Q 234.31 495.79 236.49 496.38
  Q 237.31 496.60 236.46 496.68
  L 232.92 497.01
  Z"
/>
<rect fill="#04224e" x="531.01" y="497.99" width="102.64" height="6.00" rx="2.96"/>
<rect fill="#04224e" x="378.77" y="498.00" width="102.70" height="6.00" rx="2.96"/>
<rect fill="#04224e" x="683.06" y="498.00" width="102.72" height="6.00" rx="2.96"/>
<path fill="#04224e" d="
  M 841.94 511.56
  C 839.45 510.72 838.46 503.39 844.02 505.15
  C 894.81 521.21 935.91 557.91 957.80 606.22
  A 2.47 2.47 0.0 0 1 956.62 609.47
  C 953.72 610.86 951.85 609.22 950.56 606.58
  Q 916.50 536.92 841.94 511.56
  Z"
/>
<rect fill="#04224e" x="955.75" y="658.73" width="6.00" height="102.70" rx="2.96"/>
<rect fill="#04224e" x="955.75" y="810.81" width="6.00" height="102.70" rx="2.96"/>
<path fill="#00a1b3" d="
  M 725.49 1795.00
  L 638.47 1795.00
  L 638.48 1777.58
  A 2.57 2.56 0.3 0 0 635.94 1775.02
  Q 632.37 1774.99 632.49 1778.55
  C 632.66 1784.03 632.45 1789.50 632.64 1795.00
  L 547.75 1795.00
  Q 547.75 1490.25 547.75 1185.50
  Q 547.75 1174.94 544.43 1163.23
  C 528.07 1105.63 463.99 1074.20 408.81 1099.28
  C 356.32 1123.12 334.70 1184.82 361.57 1236.20
  C 375.54 1262.90 402.28 1281.84 431.91 1287.17
  Q 439.17 1288.47 451.80 1288.48
  Q 495.88 1288.50 539.95 1288.50
  Q 540.48 1288.50 540.48 1289.03
  L 540.49 1371.52
  Q 538.34 1371.20 536.25 1371.20
  Q 491.10 1371.26 445.96 1371.52
  C 440.89 1371.55 441.65 1377.49 447.52 1377.50
  Q 493.97 1377.52 540.49 1377.47
  L 540.49 1465.70
  Q 540.49 1466.12 540.07 1466.12
  Q 497.58 1465.83 454.99 1466.09
  Q 441.54 1466.17 435.01 1465.86
  C 273.94 1458.26 154.03 1313.55 174.63 1153.72
  C 185.59 1068.68 236.25 993.48 309.81 950.56
  C 381.45 908.78 470.32 901.41 547.25 931.02
  C 654.36 972.25 725.57 1074.31 725.55 1189.56
  Q 725.52 1492.28 725.49 1795.00
  Z
  M 308.35 1050.78
  C 304.48 1054.69 310.19 1057.99 311.93 1056.20
  C 349.39 1017.58 401.58 999.78 454.83 1008.31
  C 458.34 1008.87 458.00 1002.34 453.70 1001.76
  C 398.43 994.34 347.44 1011.25 308.35 1050.78
  Z
  M 514.22 1018.96
  C 567.23 1034.35 605.75 1070.19 624.57 1121.96
  A 1.85 1.84 -13.9 0 0 626.55 1123.15
  C 629.61 1122.71 630.73 1120.55 629.66 1117.60
  C 611.03 1066.35 570.86 1029.27 518.81 1013.68
  Q 516.25 1012.91 514.51 1013.11
  A 0.94 0.94 0.0 0 0 513.75 1013.71
  Q 512.92 1015.98 513.48 1018.19
  Q 513.63 1018.78 514.22 1018.96
  Z
  M 279.96 1100.33
  Q 277.88 1098.67 275.41 1099.19
  Q 274.88 1099.31 274.61 1099.77
  C 246.74 1147.94 244.85 1206.01 268.88 1255.79
  A 2.12 2.11 -17.7 0 0 271.13 1256.95
  Q 273.77 1256.49 274.75 1254.08
  A 1.19 1.16 44.1 0 0 274.72 1253.12
  C 251.24 1204.52 253.50 1148.59 280.36 1102.44
  A 1.65 1.64 34.5 0 0 279.96 1100.33
  Z
  M 638.00 1172.96
  A 2.96 2.96 0.0 0 0 635.04 1170.00
  L 634.96 1170.00
  A 2.96 2.96 0.0 0 0 632.00 1172.96
  L 632.00 1269.74
  A 2.96 2.96 0.0 0 0 634.96 1272.70
  L 635.04 1272.70
  A 2.96 2.96 0.0 0 0 638.00 1269.74
  L 638.00 1172.96
  Z
  M 286.10 1296.63
  C 307.88 1331.23 342.39 1356.54 381.62 1367.49
  C 384.99 1368.43 387.60 1366.98 386.92 1363.20
  A 1.15 1.14 -86.7 0 0 386.11 1362.29
  C 345.86 1350.42 314.13 1328.39 291.21 1292.91
  C 290.35 1291.58 289.35 1291.32 287.99 1290.74
  Q 287.54 1290.56 287.09 1290.74
  C 284.30 1291.90 284.72 1294.43 286.10 1296.63
  Z
  M 638.50 1321.46
  A 2.96 2.96 0.0 0 0 635.54 1318.50
  L 635.46 1318.50
  A 2.96 2.96 0.0 0 0 632.50 1321.46
  L 632.50 1418.24
  A 2.96 2.96 0.0 0 0 635.46 1421.20
  L 635.54 1421.20
  A 2.96 2.96 0.0 0 0 638.50 1418.24
  L 638.50 1321.46
  Z
  M 638.50 1473.67
  A 2.96 2.96 0.0 0 0 635.54 1470.71
  L 635.46 1470.71
  A 2.96 2.96 0.0 0 0 632.50 1473.67
  L 632.50 1570.47
  A 2.96 2.96 0.0 0 0 635.46 1573.43
  L 635.54 1573.43
  A 2.96 2.96 0.0 0 0 638.50 1570.47
  L 638.50 1473.67
  Z
  M 638.50 1625.75
  A 2.96 2.96 0.0 0 0 635.54 1622.79
  L 635.46 1622.79
  A 2.96 2.96 0.0 0 0 632.50 1625.75
  L 632.50 1722.55
  A 2.96 2.96 0.0 0 0 635.46 1725.51
  L 635.54 1725.51
  A 2.96 2.96 0.0 0 0 638.50 1722.55
  L 638.50 1625.75
  Z"
/>
<rect fill="#04224e" x="955.75" y="963.02" width="6.00" height="102.70" rx="2.96"/>
<path fill="#04224e" d="
  M 311.93 1056.20
  C 310.19 1057.99 304.48 1054.69 308.35 1050.78
  C 347.44 1011.25 398.43 994.34 453.70 1001.76
  C 458.00 1002.34 458.34 1008.87 454.83 1008.31
  C 401.58 999.78 349.39 1017.58 311.93 1056.20
  Z"
/>
<path fill="#04224e" d="
  M 513.48 1018.19
  Q 512.92 1015.98 513.75 1013.71
  A 0.94 0.94 0.0 0 1 514.51 1013.11
  Q 516.25 1012.91 518.81 1013.68
  C 570.86 1029.27 611.03 1066.35 629.66 1117.60
  C 630.73 1120.55 629.61 1122.71 626.55 1123.15
  A 1.85 1.84 -13.9 0 1 624.57 1121.96
  C 605.75 1070.19 567.23 1034.35 514.22 1018.96
  Q 513.63 1018.78 513.48 1018.19
  Z"
/>
<path fill="#04224e" d="
  M 279.96 1100.33
  A 1.65 1.64 34.5 0 1 280.36 1102.44
  C 253.50 1148.59 251.24 1204.52 274.72 1253.12
  A 1.19 1.16 44.1 0 1 274.75 1254.08
  Q 273.77 1256.49 271.13 1256.95
  A 2.12 2.11 -17.7 0 1 268.88 1255.79
  C 244.85 1206.01 246.74 1147.94 274.61 1099.77
  Q 274.88 1099.31 275.41 1099.19
  Q 277.88 1098.67 279.96 1100.33
  Z"
/>
<rect fill="#04224e" x="955.75" y="1115.24" width="6.00" height="102.54" rx="2.96"/>
<rect fill="#04224e" x="632.00" y="1170.00" width="6.00" height="102.70" rx="2.96"/>
<path fill="#04224e" d="
  M 856.66 1377.76
  C 854.68 1374.86 856.35 1372.46 859.21 1371.06
  Q 929.64 1336.52 954.60 1261.79
  Q 954.76 1261.29 955.24 1261.07
  Q 958.46 1259.59 960.81 1261.80
  A 1.07 1.06 30.1 0 1 961.10 1262.87
  C 946.33 1314.81 907.36 1356.09 859.32 1378.49
  A 2.14 2.13 -29.6 0 1 856.66 1377.76
  Z"
/>
<path fill="#04224e" d="
  M 381.62 1367.49
  C 342.39 1356.54 307.88 1331.23 286.10 1296.63
  C 284.72 1294.43 284.30 1291.90 287.09 1290.74
  Q 287.54 1290.56 287.99 1290.74
  C 289.35 1291.32 290.35 1291.58 291.21 1292.91
  C 314.13 1328.39 345.86 1350.42 386.11 1362.29
  A 1.15 1.14 -86.7 0 1 386.92 1363.20
  C 387.60 1366.98 384.99 1368.43 381.62 1367.49
  Z"
/>
<rect fill="#04224e" x="632.50" y="1318.50" width="6.00" height="102.70" rx="2.96"/>
<path fill="#04224e" d="
  M 540.49 1371.52
  L 540.49 1377.47
  Q 493.97 1377.52 447.52 1377.50
  C 441.65 1377.49 440.89 1371.55 445.96 1371.52
  Q 491.10 1371.26 536.25 1371.20
  Q 538.34 1371.20 540.49 1371.52
  Z"
/>
<path fill="#04224e" d="
  M 731.07 1373.75
  Q 769.92 1373.75 808.24 1373.75
  C 810.75 1373.75 812.74 1374.52 812.51 1377.35
  A 2.48 2.48 0.0 0 1 810.05 1379.62
  L 731.11 1379.96
  L 731.07 1373.75
  Z"
/>
<rect fill="#04224e" x="632.50" y="1470.71" width="6.00" height="102.72" rx="2.96"/>
<rect fill="#04224e" x="632.50" y="1622.79" width="6.00" height="102.72" rx="2.96"/>
<path fill="#04224e" d="
  M 638.47 1795.00
  L 632.64 1795.00
  C 632.45 1789.50 632.66 1784.03 632.49 1778.55
  Q 632.37 1774.99 635.94 1775.02
  A 2.57 2.56 0.3 0 1 638.48 1777.58
  L 638.47 1795.00
  Z"
/>
</svg>
