<?xml version="1.0" encoding="utf-8"?>
<svg version="1.1" viewBox="-320.71 340.725 1796.03 1097.158" xmlns="http://www.w3.org/2000/svg">
  <g stroke-width="2.00" fill="none" stroke-linecap="butt" style="transform-origin: 573.919px 897.5px;" transform="matrix(0, 1, -1, 0, 3.764397, -3.764321)">
    <path stroke="#026281" vector-effect="non-scaling-stroke" d=" M 186.18 0.00 Q 186.33 11.37 186.09 22.75 C 185.99 27.57 192.26 28.31 192.26 23.18 Q 192.25 11.59 192.25 0.00"/>
    <path stroke="#026281" vector-effect="non-scaling-stroke" d=" M 731.11 1379.96 L 810.05 1379.62 A 2.48 2.48 0.0 0 0 812.51 1377.35 C 812.74 1374.52 810.75 1373.75 808.24 1373.75 Q 769.92 1373.75 731.07 1373.75"/>
    <path stroke="#026281" vector-effect="non-scaling-stroke" d=" M 192.25 79.10 A 2.85 2.85 0.0 0 0 189.40 76.25 L 189.10 76.25 A 2.85 2.85 0.0 0 0 186.25 79.10 L 186.25 175.92 A 2.85 2.85 0.0 0 0 189.10 178.77 L 189.40 178.77 A 2.85 2.85 0.0 0 0 192.25 175.92 L 192.25 79.10"/>
    <path stroke="#026281" vector-effect="non-scaling-stroke" d=" M 192.25 231.26 A 2.96 2.96 0.0 0 0 189.29 228.30 L 189.21 228.30 A 2.96 2.96 0.0 0 0 186.25 231.26 L 186.25 328.04 A 2.96 2.96 0.0 0 0 189.21 331.00 L 189.29 331.00 A 2.96 2.96 0.0 0 0 192.25 328.04 L 192.25 231.26"/>
    <path stroke="#026281" vector-effect="non-scaling-stroke" d=" M 201.99 392.73 C 223.70 441.02 265.26 477.87 315.86 493.68 C 320.58 495.16 321.03 488.44 316.93 487.05 Q 243.08 461.95 208.74 391.46 C 206.80 387.48 200.09 388.51 201.99 392.73"/>
    <path stroke="#026281" vector-effect="non-scaling-stroke" d=" M 232.92 497.01 L 236.46 496.68 Q 237.31 496.60 236.49 496.38 Q 234.31 495.79 232.80 496.64 Q 231.98 497.10 232.92 497.01"/>
    <path stroke="#026281" vector-effect="non-scaling-stroke" d=" M 633.65 500.95 A 2.96 2.96 0.0 0 0 630.69 497.99 L 533.97 497.99 A 2.96 2.96 0.0 0 0 531.01 500.95 L 531.01 501.03 A 2.96 2.96 0.0 0 0 533.97 503.99 L 630.69 503.99 A 2.96 2.96 0.0 0 0 633.65 501.03 L 633.65 500.95"/>
    <path stroke="#026281" vector-effect="non-scaling-stroke" d=" M 481.47 500.96 A 2.96 2.96 0.0 0 0 478.51 498.00 L 381.73 498.00 A 2.96 2.96 0.0 0 0 378.77 500.96 L 378.77 501.04 A 2.96 2.96 0.0 0 0 381.73 504.00 L 478.51 504.00 A 2.96 2.96 0.0 0 0 481.47 501.04 L 481.47 500.96"/>
    <path stroke="#026281" vector-effect="non-scaling-stroke" d=" M 785.78 500.96 A 2.96 2.96 0.0 0 0 782.82 498.00 L 686.02 498.00 A 2.96 2.96 0.0 0 0 683.06 500.96 L 683.06 501.04 A 2.96 2.96 0.0 0 0 686.02 504.00 L 782.82 504.00 A 2.96 2.96 0.0 0 0 785.78 501.04 L 785.78 500.96"/>
    <path stroke="#026281" vector-effect="non-scaling-stroke" d=" M 841.94 511.56 Q 916.50 536.92 950.56 606.58 C 951.85 609.22 953.72 610.86 956.62 609.47 A 2.47 2.47 0.0 0 0 957.80 606.22 C 935.91 557.91 894.81 521.21 844.02 505.15 C 838.46 503.39 839.45 510.72 841.94 511.56"/>
    <path stroke="#026281" vector-effect="non-scaling-stroke" d=" M 961.75 661.69 A 2.96 2.96 0.0 0 0 958.79 658.73 L 958.71 658.73 A 2.96 2.96 0.0 0 0 955.75 661.69 L 955.75 758.47 A 2.96 2.96 0.0 0 0 958.71 761.43 L 958.79 761.43 A 2.96 2.96 0.0 0 0 961.75 758.47 L 961.75 661.69"/>
    <path stroke="#026281" vector-effect="non-scaling-stroke" d=" M 961.75 813.77 A 2.96 2.96 0.0 0 0 958.79 810.81 L 958.71 810.81 A 2.96 2.96 0.0 0 0 955.75 813.77 L 955.75 910.55 A 2.96 2.96 0.0 0 0 958.71 913.51 L 958.79 913.51 A 2.96 2.96 0.0 0 0 961.75 910.55 L 961.75 813.77"/>
    <path stroke="#026281" vector-effect="non-scaling-stroke" d=" M 961.75 965.98 A 2.96 2.96 0.0 0 0 958.79 963.02 L 958.71 963.02 A 2.96 2.96 0.0 0 0 955.75 965.98 L 955.75 1062.76 A 2.96 2.96 0.0 0 0 958.71 1065.72 L 958.79 1065.72 A 2.96 2.96 0.0 0 0 961.75 1062.76 L 961.75 965.98"/>
    <path stroke="#026281" vector-effect="non-scaling-stroke" d=" M 961.75 1118.20 A 2.96 2.96 0.0 0 0 958.79 1115.24 L 958.71 1115.24 A 2.96 2.96 0.0 0 0 955.75 1118.20 L 955.75 1214.82 A 2.96 2.96 0.0 0 0 958.71 1217.78 L 958.79 1217.78 A 2.96 2.96 0.0 0 0 961.75 1214.82 L 961.75 1118.20"/>
    <path stroke="#026281" vector-effect="non-scaling-stroke" d=" M 856.66 1377.76 A 2.14 2.13 -29.6 0 0 859.32 1378.49 C 907.36 1356.09 946.33 1314.81 961.10 1262.87 A 1.07 1.06 30.1 0 0 960.81 1261.80 Q 958.46 1259.59 955.24 1261.07 Q 954.76 1261.29 954.60 1261.79 Q 929.64 1336.52 859.21 1371.06 C 856.35 1372.46 854.68 1374.86 856.66 1377.76"/>
    <path stroke="#026281" vector-effect="non-scaling-stroke" d=" M 638.47 1795.00 L 638.48 1777.58 A 2.57 2.56 0.3 0 0 635.94 1775.02 Q 632.37 1774.99 632.49 1778.55 C 632.66 1784.03 632.45 1789.50 632.64 1795.00"/>
    <path stroke="#026281" vector-effect="non-scaling-stroke" d=" M 540.49 1371.52 Q 538.34 1371.20 536.25 1371.20 Q 491.10 1371.26 445.96 1371.52 C 440.89 1371.55 441.65 1377.49 447.52 1377.50 Q 493.97 1377.52 540.49 1377.47"/>
    <path stroke="#026281" vector-effect="non-scaling-stroke" d=" M 308.35 1050.78 C 304.48 1054.69 310.19 1057.99 311.93 1056.20 C 349.39 1017.58 401.58 999.78 454.83 1008.31 C 458.34 1008.87 458.00 1002.34 453.70 1001.76 C 398.43 994.34 347.44 1011.25 308.35 1050.78"/>
    <path stroke="#026281" vector-effect="non-scaling-stroke" d=" M 514.22 1018.96 C 567.23 1034.35 605.75 1070.19 624.57 1121.96 A 1.85 1.84 -13.9 0 0 626.55 1123.15 C 629.61 1122.71 630.73 1120.55 629.66 1117.60 C 611.03 1066.35 570.86 1029.27 518.81 1013.68 Q 516.25 1012.91 514.51 1013.11 A 0.94 0.94 0.0 0 0 513.75 1013.71 Q 512.92 1015.98 513.48 1018.19 Q 513.63 1018.78 514.22 1018.96"/>
    <path stroke="#026281" vector-effect="non-scaling-stroke" d=" M 279.96 1100.33 Q 277.88 1098.67 275.41 1099.19 Q 274.88 1099.31 274.61 1099.77 C 246.74 1147.94 244.85 1206.01 268.88 1255.79 A 2.12 2.11 -17.7 0 0 271.13 1256.95 Q 273.77 1256.49 274.75 1254.08 A 1.19 1.16 44.1 0 0 274.72 1253.12 C 251.24 1204.52 253.50 1148.59 280.36 1102.44 A 1.65 1.64 34.5 0 0 279.96 1100.33"/>
    <path stroke="#026281" vector-effect="non-scaling-stroke" d=" M 638.00 1172.96 A 2.96 2.96 0.0 0 0 635.04 1170.00 L 634.96 1170.00 A 2.96 2.96 0.0 0 0 632.00 1172.96 L 632.00 1269.74 A 2.96 2.96 0.0 0 0 634.96 1272.70 L 635.04 1272.70 A 2.96 2.96 0.0 0 0 638.00 1269.74 L 638.00 1172.96"/>
    <path stroke="#026281" vector-effect="non-scaling-stroke" d=" M 286.10 1296.63 C 307.88 1331.23 342.39 1356.54 381.62 1367.49 C 384.99 1368.43 387.60 1366.98 386.92 1363.20 A 1.15 1.14 -86.7 0 0 386.11 1362.29 C 345.86 1350.42 314.13 1328.39 291.21 1292.91 C 290.35 1291.58 289.35 1291.32 287.99 1290.74 Q 287.54 1290.56 287.09 1290.74 C 284.30 1291.90 284.72 1294.43 286.10 1296.63"/>
    <path stroke="#026281" vector-effect="non-scaling-stroke" d=" M 638.50 1321.46 A 2.96 2.96 0.0 0 0 635.54 1318.50 L 635.46 1318.50 A 2.96 2.96 0.0 0 0 632.50 1321.46 L 632.50 1418.24 A 2.96 2.96 0.0 0 0 635.46 1421.20 L 635.54 1421.20 A 2.96 2.96 0.0 0 0 638.50 1418.24 L 638.50 1321.46"/>
    <path stroke="#026281" vector-effect="non-scaling-stroke" d=" M 638.50 1473.67 A 2.96 2.96 0.0 0 0 635.54 1470.71 L 635.46 1470.71 A 2.96 2.96 0.0 0 0 632.50 1473.67 L 632.50 1570.47 A 2.96 2.96 0.0 0 0 635.46 1573.43 L 635.54 1573.43 A 2.96 2.96 0.0 0 0 638.50 1570.47 L 638.50 1473.67"/>
    <path stroke="#026281" vector-effect="non-scaling-stroke" d=" M 638.50 1625.75 A 2.96 2.96 0.0 0 0 635.54 1622.79 L 635.46 1622.79 A 2.96 2.96 0.0 0 0 632.50 1625.75 L 632.50 1722.55 A 2.96 2.96 0.0 0 0 635.46 1725.51 L 635.54 1725.51 A 2.96 2.96 0.0 0 0 638.50 1722.55 L 638.50 1625.75"/>
  </g>
  <path fill="#00a1b3" d="M 265.533 164.073 L 350.253 164.073 C 350.353 171.653 350.323 179.236 350.163 186.823 C 350.063 191.643 356.333 192.383 356.333 187.253 C 356.326 179.526 356.323 171.799 356.323 164.073 L 443.303 164.073 C 443.323 267.659 443.433 371.246 443.633 474.833 C 443.646 482.953 444.093 489.416 444.973 494.223 C 452.463 535.273 485.743 568.403 527.603 574.443 C 529.729 574.749 531.929 574.899 534.203 574.893 C 714.563 574.626 843.186 574.513 920.073 574.553 C 939.683 574.553 961.013 575.463 980.993 578.343 C 1110.673 597.053 1209.583 704.053 1217.863 834.833 C 1218.176 839.753 1218.329 846.416 1218.323 854.823 C 1218.309 1021.823 1218.316 1188.823 1218.343 1355.823 C 1218.343 1428.943 1188.023 1500.633 1135.823 1551.463 C 1090.143 1595.936 1035.206 1621.956 971.013 1629.523 C 970.459 1629.589 968.339 1629.743 964.653 1629.983 C 961.833 1630.163 958.873 1630.823 956.203 1630.853 C 938.103 1631.073 920.009 1630.809 901.923 1630.063 C 900.123 1629.993 898.263 1630.283 896.563 1630.343 C 895.536 1630.376 895.026 1629.879 895.033 1628.853 L 895.183 1544.033 L 974.123 1543.693 C 975.407 1543.687 976.474 1542.702 976.583 1541.423 C 976.813 1538.593 974.823 1537.823 972.313 1537.823 C 946.766 1537.823 921.043 1537.823 895.143 1537.823 L 895.103 1453.333 C 895.103 1452.907 895.447 1452.563 895.873 1452.563 C 912.706 1452.576 929.626 1452.583 946.633 1452.583 C 996.813 1452.573 1040.563 1406.943 1040.563 1356.883 C 1040.576 1192.723 1040.579 1028.563 1040.573 864.403 C 1040.573 858.293 1041.323 849.843 1040.783 844.073 C 1036.573 799.053 1002.653 762.353 958.473 754.583 C 953.639 753.736 947.006 753.289 938.573 753.243 C 886.553 752.973 834.533 752.963 782.513 752.703 C 699.199 752.276 615.886 752.229 532.573 752.563 C 524.886 752.589 518.236 752.296 512.623 751.683 C 372.033 736.303 267.373 618.683 265.703 478.263 C 264.523 378.613 265.693 268.863 265.533 164.073 Z M 356.323 243.173 C 356.323 241.598 355.047 240.323 353.473 240.323 L 353.173 240.323 C 351.599 240.323 350.323 241.598 350.323 243.173 L 350.323 339.993 C 350.323 341.567 351.599 342.843 353.173 342.843 L 353.473 342.843 C 355.047 342.843 356.323 341.567 356.323 339.993 L 356.323 243.173 Z M 356.323 395.333 C 356.323 393.698 354.997 392.373 353.363 392.373 L 353.283 392.373 C 351.648 392.373 350.323 393.698 350.323 395.333 L 350.323 492.113 C 350.323 493.747 351.648 495.073 353.283 495.073 L 353.363 495.073 C 354.997 495.073 356.323 493.747 356.323 492.113 L 356.323 395.333 Z M 366.063 556.803 C 387.773 605.093 429.333 641.943 479.933 657.753 C 484.653 659.233 485.103 652.513 481.003 651.123 C 431.769 634.389 395.706 602.526 372.813 555.533 C 370.873 551.553 364.163 552.583 366.063 556.803 Z M 396.993 661.083 L 400.533 660.753 C 401.099 660.699 401.109 660.599 400.563 660.453 C 399.109 660.059 397.879 660.146 396.873 660.713 C 396.326 661.019 396.366 661.143 396.993 661.083 Z M 797.723 665.023 C 797.723 663.388 796.397 662.063 794.763 662.063 L 698.043 662.063 C 696.408 662.063 695.083 663.388 695.083 665.023 L 695.083 665.103 C 695.083 666.737 696.408 668.063 698.043 668.063 L 794.763 668.063 C 796.397 668.063 797.723 666.737 797.723 665.103 L 797.723 665.023 Z M 645.543 665.033 C 645.543 663.398 644.217 662.073 642.583 662.073 L 545.803 662.073 C 544.168 662.073 542.843 663.398 542.843 665.033 L 542.843 665.113 C 542.843 666.747 544.168 668.073 545.803 668.073 L 642.583 668.073 C 644.217 668.073 645.543 666.747 645.543 665.113 L 645.543 665.033 Z M 949.853 665.033 C 949.853 663.398 948.527 662.073 946.893 662.073 L 850.093 662.073 C 848.458 662.073 847.133 663.398 847.133 665.033 L 847.133 665.113 C 847.133 666.747 848.458 668.073 850.093 668.073 L 946.893 668.073 C 948.527 668.073 949.853 666.747 949.853 665.113 L 949.853 665.033 Z M 1006.013 675.633 C 1055.719 692.539 1091.926 724.213 1114.633 770.653 C 1115.923 773.293 1117.793 774.933 1120.693 773.543 C 1121.905 772.961 1122.429 771.516 1121.873 770.293 C 1099.983 721.983 1058.883 685.283 1008.093 669.223 C 1002.533 667.463 1003.523 674.793 1006.013 675.633 Z M 1125.823 825.763 C 1125.823 824.128 1124.497 822.803 1122.863 822.803 L 1122.783 822.803 C 1121.148 822.803 1119.823 824.128 1119.823 825.763 L 1119.823 922.543 C 1119.823 924.177 1121.148 925.503 1122.783 925.503 L 1122.863 925.503 C 1124.497 925.503 1125.823 924.177 1125.823 922.543 L 1125.823 825.763 Z M 1125.823 977.843 C 1125.823 976.208 1124.497 974.883 1122.863 974.883 L 1122.783 974.883 C 1121.148 974.883 1119.823 976.208 1119.823 977.843 L 1119.823 1074.623 C 1119.823 1076.257 1121.148 1077.583 1122.783 1077.583 L 1122.863 1077.583 C 1124.497 1077.583 1125.823 1076.257 1125.823 1074.623 L 1125.823 977.843 Z M 1125.823 1130.053 C 1125.823 1128.418 1124.497 1127.093 1122.863 1127.093 L 1122.783 1127.093 C 1121.148 1127.093 1119.823 1128.418 1119.823 1130.053 L 1119.823 1226.833 C 1119.823 1228.467 1121.148 1229.793 1122.783 1229.793 L 1122.863 1229.793 C 1124.497 1229.793 1125.823 1228.467 1125.823 1226.833 L 1125.823 1130.053 Z M 1125.823 1282.273 C 1125.823 1280.638 1124.497 1279.313 1122.863 1279.313 L 1122.783 1279.313 C 1121.148 1279.313 1119.823 1280.638 1119.823 1282.273 L 1119.823 1378.893 C 1119.823 1380.527 1121.148 1381.853 1122.783 1381.853 L 1122.863 1381.853 C 1124.497 1381.853 1125.823 1380.527 1125.823 1378.893 L 1125.823 1282.273 Z M 1020.733 1541.833 C 1021.319 1542.692 1022.444 1543.001 1023.393 1542.563 C 1071.433 1520.163 1110.403 1478.883 1125.173 1426.943 C 1125.284 1426.562 1125.172 1426.149 1124.883 1425.873 C 1123.316 1424.399 1121.459 1424.156 1119.313 1425.143 C 1118.993 1425.289 1118.779 1425.529 1118.673 1425.863 C 1102.033 1475.683 1070.236 1512.106 1023.283 1535.133 C 1020.423 1536.533 1018.753 1538.933 1020.733 1541.833 Z" style="transform-box: fill-box; transform-origin: 50% 50%;" transform="matrix(0, 1, -1, 0, 0.000018, -0.000044)"/>
  <path fill="#04224e" d="M 1458.835 495.637 L 1464.905 495.637 C 1464.905 503.363 1464.908 511.09 1464.915 518.817 C 1464.915 523.947 1458.645 523.207 1458.745 518.387 C 1458.905 510.8 1458.935 503.217 1458.835 495.637 Z" style="transform-box: fill-box; transform-origin: 50% 50%;" transform="matrix(0, 1, -1, 0, 0.000021, -0.000054)"/>
  <rect fill="#04224e" x="186.25" y="76.25" width="6" height="102.52" rx="2.85" transform="matrix(0, 1, -1, 0, 1158.423473, 381.556656)" style="transform-box: fill-box; transform-origin: 50% 50%;"/>
  <rect fill="#04224e" x="186.25" y="228.3" width="6" height="102.7" rx="2.96" transform="matrix(0, 1, -1, 0, 1006.283348, 229.416656)" style="transform-box: fill-box; transform-origin: 50% 50%;"/>
  <path fill="#04224e" d="M 1088.927 632.762 C 1038.327 616.952 996.767 580.102 975.057 531.812 C 973.157 527.592 979.867 526.562 981.807 530.542 C 1004.7 577.535 1040.763 609.398 1089.997 626.132 C 1094.097 627.522 1093.647 634.242 1088.927 632.762 Z" style="transform-box: fill-box; transform-origin: 50% 50%;" transform="matrix(0, 1, -1, 0, -0.000082, 0.000062)"/>
  <path fill="#04224e" d="M 976.867 554.9 C 976.24 554.96 976.2 554.837 976.747 554.53 C 977.753 553.964 978.983 553.877 980.437 554.27 C 980.983 554.417 980.973 554.517 980.407 554.57 L 976.867 554.9 Z" style="transform-box: fill-box; transform-origin: 50% 50%;" transform="matrix(0, 1, -1, 0, -0.000067, 0.000068)"/>
  <rect fill="#04224e" x="531.01" y="497.99" width="102.64" height="6" rx="2.96" transform="matrix(0, 1, -1, 0, 391.863464, 401.15667)" style="transform-box: fill-box; transform-origin: 50% 50%;"/>
  <rect fill="#04224e" x="378.77" y="498" width="102.7" height="6" rx="2.96" transform="matrix(0, 1, -1, 0, 544.063477, 248.936638)" style="transform-box: fill-box; transform-origin: 50% 50%;"/>
  <rect fill="#04224e" x="683.06" y="498" width="102.72" height="6" rx="2.96" transform="matrix(0, 1, -1, 0, 239.763489, 553.23671)" style="transform-box: fill-box; transform-origin: 50% 50%;"/>
  <path fill="#04224e" d="M 860.712 1172.934 C 858.222 1172.094 857.232 1164.764 862.792 1166.524 C 913.582 1182.584 954.682 1219.284 976.572 1267.594 C 977.129 1268.818 976.604 1270.262 975.392 1270.844 C 972.492 1272.234 970.622 1270.594 969.332 1267.954 C 946.625 1221.514 910.418 1189.841 860.712 1172.934 Z" style="transform-box: fill-box; transform-origin: 50% 50%;" transform="matrix(0, 1, -1, 0, -0.000021, -0.000029)"/>
  <rect fill="#04224e" x="955.75" y="658.73" width="6" height="102.7" rx="2.96" transform="matrix(0, 1, -1, 0, -193.646629, 568.486694)" style="transform-box: fill-box; transform-origin: 50% 50%;"/>
  <rect fill="#04224e" x="955.75" y="810.81" width="6" height="102.7" rx="2.96" transform="matrix(0, 1, -1, 0, -345.726646, 416.406708)" style="transform-box: fill-box; transform-origin: 50% 50%;"/>
  <path fill="#00a1b3" d="M 397.701 1209.719 L 310.681 1209.719 L 310.691 1192.299 C 310.691 1190.897 309.559 1189.755 308.151 1189.739 C 305.771 1189.719 304.621 1190.895 304.701 1193.269 C 304.871 1198.749 304.661 1204.219 304.851 1209.719 L 219.961 1209.719 C 219.961 1006.552 219.961 803.385 219.961 600.219 C 219.961 593.179 218.855 585.755 216.641 577.949 C 200.281 520.349 136.201 488.919 81.021 513.999 C 28.531 537.839 6.911 599.539 33.781 650.919 C 47.751 677.619 74.491 696.559 104.121 701.889 C 108.961 702.755 115.591 703.192 124.011 703.199 C 153.398 703.212 182.781 703.219 212.161 703.219 C 212.515 703.219 212.691 703.395 212.691 703.749 L 212.701 786.239 C 211.268 786.025 209.855 785.919 208.461 785.919 C 178.361 785.959 148.265 786.065 118.171 786.239 C 113.101 786.269 113.861 792.209 119.731 792.219 C 150.698 792.232 181.688 792.222 212.701 792.189 L 212.701 880.419 C 212.701 880.699 212.561 880.839 212.281 880.839 C 183.955 880.645 155.595 880.635 127.201 880.809 C 118.235 880.862 111.575 880.785 107.221 880.579 C -53.849 872.979 -173.759 728.269 -153.159 568.439 C -142.199 483.399 -91.539 408.199 -17.979 365.279 C 53.661 323.499 142.531 316.129 219.461 345.739 C 326.571 386.969 397.781 489.029 397.761 604.279 C 397.741 806.092 397.721 1007.905 397.701 1209.719 Z M -19.439 465.499 C -23.309 469.409 -17.599 472.709 -15.859 470.919 C 21.601 432.299 73.791 414.499 127.041 423.029 C 130.551 423.589 130.211 417.059 125.911 416.479 C 70.641 409.059 19.651 425.969 -19.439 465.499 Z M 186.431 433.679 C 239.441 449.069 277.961 484.909 296.781 536.679 C 297.078 537.489 297.901 537.984 298.761 537.869 C 301.821 537.429 302.941 535.269 301.871 532.319 C 283.241 481.069 243.071 443.989 191.021 428.399 C 189.315 427.885 187.881 427.695 186.721 427.829 C 186.377 427.873 186.084 428.104 185.961 428.429 C 185.408 429.942 185.318 431.435 185.691 432.909 C 185.791 433.302 186.038 433.559 186.431 433.679 Z M -47.829 515.049 C -49.215 513.942 -50.732 513.562 -52.379 513.909 C -52.732 513.989 -52.999 514.182 -53.179 514.489 C -81.049 562.659 -82.939 620.729 -58.909 670.509 C -58.501 671.35 -57.585 671.822 -56.659 671.669 C -54.899 671.362 -53.692 670.405 -53.039 668.799 C -52.911 668.493 -52.922 668.143 -53.069 667.839 C -76.549 619.239 -74.289 563.309 -47.429 517.159 C -47.021 516.457 -47.191 515.559 -47.829 515.049 L -47.829 515.049 Z M 310.211 587.679 C 310.211 586.044 308.886 584.719 307.251 584.719 L 307.171 584.719 C 305.537 584.719 304.211 586.044 304.211 587.679 L 304.211 684.459 C 304.211 686.094 305.537 687.419 307.171 687.419 L 307.251 687.419 C 308.886 687.419 310.211 686.094 310.211 684.459 L 310.211 587.679 Z M -41.689 711.349 C -19.909 745.949 14.601 771.259 53.831 782.209 C 57.201 783.149 59.811 781.699 59.131 777.919 C 59.057 777.483 58.742 777.13 58.321 777.009 C 18.071 765.139 -13.659 743.109 -36.579 707.629 C -37.439 706.299 -38.439 706.039 -39.799 705.459 C -40.099 705.339 -40.399 705.339 -40.699 705.459 C -43.489 706.619 -43.069 709.149 -41.689 711.349 Z M 310.711 736.179 C 310.711 734.544 309.386 733.219 307.751 733.219 L 307.671 733.219 C 306.037 733.219 304.711 734.544 304.711 736.179 L 304.711 832.959 C 304.711 834.594 306.037 835.919 307.671 835.919 L 307.751 835.919 C 309.386 835.919 310.711 834.594 310.711 832.959 L 310.711 736.179 Z M 310.711 888.389 C 310.711 886.754 309.386 885.429 307.751 885.429 L 307.671 885.429 C 306.037 885.429 304.711 886.754 304.711 888.389 L 304.711 985.189 C 304.711 986.824 306.037 988.149 307.671 988.149 L 307.751 988.149 C 309.386 988.149 310.711 986.824 310.711 985.189 L 310.711 888.389 Z M 310.711 1040.469 C 310.711 1038.834 309.386 1037.509 307.751 1037.509 L 307.671 1037.509 C 306.037 1037.509 304.711 1038.834 304.711 1040.469 L 304.711 1137.269 C 304.711 1138.904 306.037 1140.229 307.671 1140.229 L 307.751 1140.229 C 309.386 1140.229 310.711 1138.904 310.711 1137.269 L 310.711 1040.469 Z" style="transform-box: fill-box; transform-origin: 50% 50%;" transform="matrix(0, 1, -1, 0, -0.000015, -0.000026)"/>
  <rect fill="#04224e" x="955.75" y="963.02" width="6" height="102.7" rx="2.96" transform="matrix(0, 1, -1, 0, -497.936668, 264.196686)" style="transform-box: fill-box; transform-origin: 50% 50%;"/>
  <path fill="#04224e" d="M 376.61 729.764 C 374.87 731.554 369.16 728.254 373.03 724.344 C 412.12 684.814 463.11 667.904 518.38 675.324 C 522.68 675.904 523.02 682.434 519.51 681.874 C 466.26 673.344 414.07 691.144 376.61 729.764 Z" style="transform-box: fill-box; transform-origin: 50% 50%;" transform="matrix(0, 1, -1, 0, 0.000043, -0.000036)"/>
  <path fill="#04224e" d="M 348.891 841.544 C 348.517 840.071 348.607 838.578 349.161 837.064 C 349.284 836.739 349.576 836.508 349.921 836.464 C 351.081 836.331 352.514 836.521 354.221 837.034 C 406.271 852.624 446.441 889.704 465.071 940.954 C 466.141 943.904 465.021 946.064 461.961 946.504 C 461.101 946.619 460.278 946.125 459.981 945.314 C 441.161 893.544 402.641 857.704 349.631 842.314 C 349.237 842.194 348.991 841.938 348.891 841.544 Z" style="transform-box: fill-box; transform-origin: 50% 50%;" transform="matrix(0, 1, -1, 0, -0.000001, -0.000049)"/>
  <path fill="#04224e" d="M 310.742 508.504 C 311.38 509.014 311.55 509.912 311.142 510.614 C 284.282 556.764 282.022 612.694 305.502 661.294 C 305.648 661.598 305.659 661.948 305.532 662.254 C 304.879 663.86 303.672 664.817 301.912 665.124 C 300.985 665.277 300.07 664.805 299.662 663.964 C 275.632 614.184 277.522 556.114 305.392 507.944 C 305.572 507.637 305.839 507.444 306.192 507.364 C 307.839 507.017 309.355 507.397 310.742 508.504 Z" style="transform-box: fill-box; transform-origin: 50% 50%;" transform="matrix(0, 1, -1, 0, 0.000024, 0.000027)"/>
  <rect fill="#04224e" x="955.75" y="1115.24" width="6" height="102.54" rx="2.96" transform="matrix(0, 1, -1, 0, -650.076519, 112.056671)" style="transform-box: fill-box; transform-origin: 50% 50%;"/>
  <rect fill="#04224e" x="632" y="1170" width="6" height="102.7" rx="2.96" transform="matrix(0, 1, -1, 0, -381.166649, -266.533295)" style="transform-box: fill-box; transform-origin: 50% 50%;"/>
  <path fill="#04224e" d="M 103.792 1286.464 C 101.812 1283.564 103.482 1281.164 106.342 1279.764 C 153.295 1256.738 185.092 1220.314 201.732 1170.494 C 201.838 1170.161 202.052 1169.921 202.372 1169.774 C 204.518 1168.788 206.375 1169.031 207.942 1170.504 C 208.231 1170.78 208.343 1171.193 208.232 1171.574 C 193.462 1223.514 154.492 1264.794 106.452 1287.194 C 105.503 1287.632 104.378 1287.324 103.792 1286.464 L 103.792 1286.464 Z" style="transform-box: fill-box; transform-origin: 50% 50%;" transform="matrix(0, 1, -1, 0, 0.000032, 0.000019)"/>
  <path fill="#04224e" d="M 191.568 694.124 C 152.338 683.174 117.828 657.864 96.048 623.264 C 94.668 621.064 94.248 618.534 97.038 617.374 C 97.338 617.254 97.638 617.254 97.938 617.374 C 99.298 617.954 100.298 618.214 101.158 619.544 C 124.078 655.024 155.808 677.054 196.058 688.924 C 196.479 689.045 196.794 689.399 196.868 689.834 C 197.548 693.614 194.938 695.064 191.568 694.124 Z" style="transform-box: fill-box; transform-origin: 50% 50%;" transform="matrix(0, 1, -1, 0, -0.000035, 0.000002)"/>
  <rect fill="#04224e" x="632.5" y="1318.5" width="6" height="102.7" rx="2.96" transform="matrix(0, 1, -1, 0, -530.166527, -414.533295)" style="transform-box: fill-box; transform-origin: 50% 50%;"/>
  <path fill="#04224e" d="M 149.78 808.525 L 149.78 814.475 C 118.766 814.508 87.776 814.518 56.81 814.505 C 50.94 814.495 50.18 808.555 55.25 808.525 C 85.343 808.351 115.44 808.245 145.54 808.205 C 146.933 808.205 148.346 808.311 149.78 808.525 Z" style="transform-box: fill-box; transform-origin: 50% 50%;" transform="matrix(0, 1, -1, 0, -0.000054, -0.000065)"/>
  <path fill="#04224e" d="M 57.599 1088.511 C 83.499 1088.511 109.223 1088.511 134.769 1088.511 C 137.279 1088.511 139.269 1089.281 139.039 1092.111 C 138.931 1093.39 137.863 1094.375 136.579 1094.381 L 57.639 1094.721 L 57.599 1088.511 Z" style="transform-box: fill-box; transform-origin: 50% 50%;" transform="matrix(0, 1, -1, 0, -0.000049, -0.000042)"/>
  <rect fill="#04224e" x="632.5" y="1470.71" width="6" height="102.72" rx="2.96" transform="matrix(0, 1, -1, 0, -682.38649, -566.753296)" style="transform-box: fill-box; transform-origin: 50% 50%;"/>
  <rect fill="#04224e" x="632.5" y="1622.79" width="6" height="102.72" rx="2.96" transform="matrix(0, 1, -1, 0, -834.466568, -718.833374)" style="transform-box: fill-box; transform-origin: 50% 50%;"/>
  <path fill="#04224e" d="M -306.839 965.29 L -312.669 965.29 C -312.859 959.79 -312.649 954.32 -312.819 948.84 C -312.899 946.466 -311.749 945.29 -309.369 945.31 C -307.962 945.326 -306.829 946.468 -306.829 947.87 L -306.839 965.29 Z" style="transform-box: fill-box; transform-origin: 50% 50%;" transform="matrix(0, 1, -1, 0, 0.000019, 0.000006)"/>
</svg>